<svg width="20" height="20" viewBox="0 0 20 20" fill="none" xmlns="http://www.w3.org/2000/svg">
<path fill-rule="evenodd" clip-rule="evenodd" d="M10 20C15.5228 20 20 15.5228 20 10C20 4.47715 15.5228 0 10 0C4.47715 0 0 4.47715 0 10C0 15.5228 4.47715 20 10 20ZM4.2888 11.6403C4.09589 11.4388 3.90298 11.2374 3.71014 11.0365L3.71014 11.0366C3.58631 10.908 3.50421 10.7855 3.47788 10.6057C3.45259 10.4362 3.51762 10.2701 3.61685 10.1364C3.71153 10.0084 3.89258 9.92024 4.04768 9.90417C4.19008 9.88941 4.41306 9.93312 4.51699 10.0431C4.65833 10.1929 4.79941 10.34 4.94049 10.4872L4.94084 10.4875C5.24784 10.8091 5.5555 11.1305 5.86315 11.452C6.17085 11.7735 6.47855 12.0951 6.7856 12.4167C6.97874 12.6178 7.17194 12.8195 7.36514 13.0213C7.41822 13.0768 7.47131 13.1322 7.52439 13.1876C7.58154 13.1265 7.63888 13.0655 7.6962 13.0046C7.80348 12.8906 7.91067 12.7767 8.01635 12.6618C8.44395 12.1988 8.87036 11.7349 9.29644 11.2713C9.52426 11.0234 9.752 10.7756 9.97976 10.5282L12.2503 8.05951C12.5645 7.71847 12.8787 7.3768 13.1929 7.03513C13.507 6.69359 13.821 6.35204 14.1352 6.01114C14.2642 5.87073 14.3939 5.73024 14.5235 5.58974C14.6561 5.44605 14.7887 5.30235 14.9207 5.15873C15.1631 4.89458 15.5285 4.84901 15.8208 5.06544C16.0855 5.26415 16.1403 5.71851 15.9141 5.96556C15.9118 5.96836 15.9094 5.97053 15.9071 5.9727C15.9048 5.97488 15.9024 5.97705 15.9001 5.97985C15.6947 6.21931 15.4781 6.44962 15.2618 6.67953C15.1545 6.79355 15.0473 6.90748 14.9416 7.02239C14.514 7.48538 14.0876 7.94932 13.6615 8.4129C13.4337 8.66076 13.206 8.90851 12.9782 9.15597L10.7077 11.6246C10.3935 11.9655 10.0795 12.3071 9.7654 12.6486C9.45122 12.9903 9.13703 13.332 8.82279 13.673C8.69373 13.8134 8.56405 13.954 8.43437 14.0945C8.3018 14.2382 8.16922 14.3818 8.0373 14.5254C7.91693 14.6535 7.78112 14.7319 7.60647 14.7577C7.46741 14.7798 7.23802 14.7239 7.13716 14.6187C6.9957 14.4689 6.8545 14.3216 6.7133 14.1743C6.40625 13.8527 6.09855 13.5312 5.79085 13.2097C5.4832 12.8882 5.17554 12.5667 4.86854 12.2452C4.67534 12.044 4.48207 11.8421 4.2888 11.6403Z" fill="white"/>
</svg>

